<?xml version="1.0" encoding="UTF-8" standalone="no"?>
<!-- Created with Inkscape (http://www.inkscape.org/) -->

<svg
   width="30mm"
   height="30mm"
   viewBox="0 0 30 30"
   version="1.1"
   id="svg1"
   xml:space="preserve"
   inkscape:version="1.3.2 (091e20e, 2023-11-25)"
   sodipodi:docname="ivu_logo.svg"
   xmlns:inkscape="http://www.inkscape.org/namespaces/inkscape"
   xmlns:sodipodi="http://sodipodi.sourceforge.net/DTD/sodipodi-0.dtd"
   xmlns="http://www.w3.org/2000/svg"
   xmlns:svg="http://www.w3.org/2000/svg"><sodipodi:namedview
     id="namedview1"
     pagecolor="#ffffff"
     bordercolor="#000000"
     borderopacity="0.25"
     inkscape:showpageshadow="2"
     inkscape:pageopacity="0.0"
     inkscape:pagecheckerboard="0"
     inkscape:deskcolor="#d1d1d1"
     inkscape:document-units="mm"
     inkscape:zoom="1.1893044"
     inkscape:cx="165.22263"
     inkscape:cy="130.32828"
     inkscape:window-width="1696"
     inkscape:window-height="1015"
     inkscape:window-x="2179"
     inkscape:window-y="129"
     inkscape:window-maximized="0"
     inkscape:current-layer="layer1" /><defs
     id="defs1"><clipPath
       clipPathUnits="userSpaceOnUse"
       id="clipPath1"><rect
         style="fill:none;stroke:#c3c3c3;stroke-width:0.422002;stroke-opacity:1"
         id="rect2"
         width="121.71064"
         height="79.409111"
         x="-14.907886"
         y="0.22243445"
         transform="matrix(0.99865516,-0.05184469,0.04867316,0.99881476,0,0)" /></clipPath></defs><g
     inkscape:label="Layer 1"
     inkscape:groupmode="layer"
     id="layer1"><path
       style="fill:#000000;stroke-width:0.22197"
       d="M 11.421115,17.013574 6.9576771,17.024816 6.3997476,16.981002 5.8418175,16.937187 5.4432056,16.869593 5.0445936,16.802001 4.591935,16.622185 4.1392764,16.44237 3.7787284,16.185089 3.4181803,15.927806 3.2639959,15.744569 3.1098114,15.561332 2.9526695,15.293189 2.7955271,15.025046 2.6768162,14.696364 2.5581041,14.367683 2.5261705,11.309022 2.494237,8.2503622 2.5235995,8.084713 2.5529621,7.9190632 2.9436453,8.2148847 3.3343286,8.5107056 4.070945,9.1713553 4.8075622,9.832005 l 0.04729,0.094849 0.04729,0.09485 v 1.910839 1.910838 l 0.1065425,0.163056 0.106543,0.163057 0.2632616,0.166955 0.2632613,0.166956 0.369124,0.06428 0.3691247,0.06428 4.5467207,-0.0014 4.546721,-0.0014 0.264283,-0.06018 0.264282,-0.06018 0.224846,-0.147825 0.224846,-0.147822 0.111559,-0.245716 0.111557,-0.245716 0.0012,-0.490598 0.0012,-0.490596 -0.06538,-0.84878 -0.06538,-0.848779 0.06424,-0.431923 0.06424,-0.431924 0.06868,-0.150733 0.06868,-0.1507342 0.671872,-0.6033316 0.671872,-0.6033323 0.382097,-0.3083302 0.382097,-0.3083291 h 0.05308 0.05308 l -0.0011,3.0098834 -0.0011,3.009883 -0.08686,0.410082 -0.08686,0.410082 -0.156532,0.31994 -0.156533,0.319941 -0.367575,0.367575 -0.367574,0.367574 -0.547915,0.262857 -0.547915,0.262856 -0.411107,0.103693 -0.411105,0.103693 z m -0.259293,-3.530203 -0.445461,0.02713 -0.234917,-0.05046 -0.234918,-0.05046 L 9.9470165,13.295645 9.6475063,13.181719 9.322405,12.96593 8.9973048,12.75014 8.3885966,12.240887 7.779889,11.731638 7.7505263,11.696737 7.7211636,11.661836 7.1338659,11.161649 6.5465713,10.661468 5.4894419,9.7808795 4.4323123,8.9002936 3.7076046,8.3503239 2.9828974,7.8003554 2.7385691,7.4769066 2.4942407,7.1534583 2.4756549,5.8860323 2.457069,4.6186058 2.5483737,4.1809834 2.6396785,3.7433604 2.8033477,3.5411418 2.9670176,3.3389227 3.1701827,3.229964 3.3733479,3.1210052 h 0.4180196 0.4180196 l 0.1984797,0.1337555 0.1984802,0.1337554 0.1006584,0.2626679 0.1006584,0.2626686 0.00352,0.8809414 0.00352,0.8809421 0.057516,0.2070405 0.057516,0.2070405 0.2504829,0.269786 0.2504829,0.2697854 0.4111059,0.3126693 0.4111059,0.3126693 0.7341181,0.6164039 0.734118,0.6164039 0.7928478,0.6754159 0.7928469,0.6754164 0.4572661,0.4320008 0.4572647,0.432 0.273668,0.173556 0.273668,0.173555 h 0.166577 0.166577 l 0.208147,-0.08697 0.208146,-0.08697 0.744321,-0.721433 0.744321,-0.7214331 0.354125,-0.3221396 0.354122,-0.322139 0.203807,-0.1764951 0.203804,-0.1764952 0.792848,-0.7043155 0.792848,-0.7043161 0.02937,-0.031399 0.02937,-0.031405 0.55793,-0.4990593 0.557929,-0.499058 0.207444,-0.1272577 0.207445,-0.1272571 0.262766,-0.058885 0.262764,-0.058885 0.222875,0.050263 0.222876,0.050263 0.204889,0.1376457 0.204887,0.1376473 0.171139,0.2555924 0.17114,0.2555925 0.03718,0.2479335 0.03718,0.247933 -0.09599,0.2305926 -0.09599,0.2305921 -0.24682,0.255539 -0.24682,0.2555391 -0.61666,0.5049198 -0.616659,0.5049197 -0.484552,0.4343632 -0.484554,0.4343632 0.03848,0.062249 0.03848,0.062249 -0.06307,-0.038981 -0.06307,-0.038981 -0.07815,0.074356 -0.07815,0.074355 -0.880942,0.797697 -0.880941,0.797696 -0.587295,0.515167 -0.587294,0.515167 -0.3646,0.261145 -0.3646,0.261145 -0.364528,0.142858 -0.364533,0.142857 z M 3.6688288,2.4098493 3.5513696,2.4040933 3.3214687,2.343315 3.0915682,2.282537 2.8435682,2.0345369 2.5955687,1.7865374 2.5312806,1.4867739 2.4669932,1.187011 2.5036852,0.99409365 2.5403772,0.80117637 2.6170838,0.64838869 2.6937904,0.49560041 2.8959757,0.31807948 3.098161,0.14055842 3.3911169,0.07027952 3.6840735,-4.5e-8 3.9233794,0.06443834 4.1626859,0.12887672 4.3503689,0.28680205 4.5380521,0.44472663 4.6760509,0.75676737 4.8140499,1.068808 4.8137217,1.2286391 4.813393,1.3884703 4.7485422,1.6220642 4.6836912,1.855658 4.4685809,2.0707684 4.2534706,2.2858787 4.0198767,2.3507296 3.7862829,2.4155805 Z"
       id="path3" /></g></svg>
