999
"DXF R12 Output" (www.mydxf.blogspot.com)
 0 
SECTION
 2 
HEADER
 9 
$ACADVER
 1 
AC1009
 9 
$EXTMIN
 10 
 0 
 20 
 0 
 9 
$EXTMAX
 10 
 8.5 
 20 
 11 
 0 
ENDSEC
 0 
SECTION
 2 
ENTITIES
0
LINE
8
Layer 1
10
11.421115
20
12.986426
11
6.957677
21
12.975184
0
LINE
8
Layer 1
10
6.957677
20
12.975184
11
6.399748
21
13.018998
0
LINE
8
Layer 1
10
6.399748
20
13.018998
11
5.841818
21
13.062813
0
LINE
8
Layer 1
10
5.841818
20
13.062813
11
5.443206
21
13.130407
0
LINE
8
Layer 1
10
5.443206
20
13.130407
11
5.044594
21
13.197999
0
LINE
8
Layer 1
10
5.044594
20
13.197999
11
4.591935
21
13.377815
0
LINE
8
Layer 1
10
4.591935
20
13.377815
11
4.139276
21
13.557630
0
LINE
8
Layer 1
10
4.139276
20
13.557630
11
3.778728
21
13.814911
0
LINE
8
Layer 1
10
3.778728
20
13.814911
11
3.418180
21
14.072194
0
LINE
8
Layer 1
10
3.418180
20
14.072194
11
3.263996
21
14.255431
0
LINE
8
Layer 1
10
3.263996
20
14.255431
11
3.109811
21
14.438668
0
LINE
8
Layer 1
10
3.109811
20
14.438668
11
2.952669
21
14.706811
0
LINE
8
Layer 1
10
2.952669
20
14.706811
11
2.795527
21
14.974954
0
LINE
8
Layer 1
10
2.795527
20
14.974954
11
2.676816
21
15.303636
0
LINE
8
Layer 1
10
2.676816
20
15.303636
11
2.558104
21
15.632317
0
LINE
8
Layer 1
10
2.558104
20
15.632317
11
2.526171
21
18.690978
0
LINE
8
Layer 1
10
2.526171
20
18.690978
11
2.494237
21
21.749638
0
LINE
8
Layer 1
10
2.494237
20
21.749638
11
2.523599
21
21.915287
0
LINE
8
Layer 1
10
2.523599
20
21.915287
11
2.552962
21
22.080937
0
LINE
8
Layer 1
10
2.552962
20
22.080937
11
2.943645
21
21.785115
0
LINE
8
Layer 1
10
2.943645
20
21.785115
11
3.334329
21
21.489294
0
LINE
8
Layer 1
10
3.334329
20
21.489294
11
4.070945
21
20.828645
0
LINE
8
Layer 1
10
4.070945
20
20.828645
11
4.807562
21
20.167995
0
LINE
8
Layer 1
10
4.807562
20
20.167995
11
4.854852
21
20.073146
0
LINE
8
Layer 1
10
4.854852
20
20.073146
11
4.902142
21
19.978296
0
LINE
8
Layer 1
10
4.902142
20
19.978296
11
4.902142
21
18.067457
0
LINE
8
Layer 1
10
4.902142
20
18.067457
11
4.902142
21
16.156619
0
LINE
8
Layer 1
10
4.902142
20
16.156619
11
5.008685
21
15.993563
0
LINE
8
Layer 1
10
5.008685
20
15.993563
11
5.115228
21
15.830506
0
LINE
8
Layer 1
10
5.115228
20
15.830506
11
5.378489
21
15.663551
0
LINE
8
Layer 1
10
5.378489
20
15.663551
11
5.641751
21
15.496595
0
LINE
8
Layer 1
10
5.641751
20
15.496595
11
6.010875
21
15.432315
0
LINE
8
Layer 1
10
6.010875
20
15.432315
11
6.379999
21
15.368035
0
LINE
8
Layer 1
10
6.379999
20
15.368035
11
10.926720
21
15.369435
0
LINE
8
Layer 1
10
10.926720
20
15.369435
11
15.473441
21
15.370835
0
LINE
8
Layer 1
10
15.473441
20
15.370835
11
15.737724
21
15.431015
0
LINE
8
Layer 1
10
15.737724
20
15.431015
11
16.002006
21
15.491195
0
LINE
8
Layer 1
10
16.002006
20
15.491195
11
16.226852
21
15.639020
0
LINE
8
Layer 1
10
16.226852
20
15.639020
11
16.451698
21
15.786842
0
LINE
8
Layer 1
10
16.451698
20
15.786842
11
16.563257
21
16.032558
0
LINE
8
Layer 1
10
16.563257
20
16.032558
11
16.674814
21
16.278274
0
LINE
8
Layer 1
10
16.674814
20
16.278274
11
16.676014
21
16.768872
0
LINE
8
Layer 1
10
16.676014
20
16.768872
11
16.677214
21
17.259468
0
LINE
8
Layer 1
10
16.677214
20
17.259468
11
16.611834
21
18.108248
0
LINE
8
Layer 1
10
16.611834
20
18.108248
11
16.546454
21
18.957027
0
LINE
8
Layer 1
10
16.546454
20
18.957027
11
16.610694
21
19.388950
0
LINE
8
Layer 1
10
16.610694
20
19.388950
11
16.674934
21
19.820874
0
LINE
8
Layer 1
10
16.674934
20
19.820874
11
16.743614
21
19.971607
0
LINE
8
Layer 1
10
16.743614
20
19.971607
11
16.812294
21
20.122341
0
LINE
8
Layer 1
10
16.812294
20
20.122341
11
17.484166
21
20.725673
0
LINE
8
Layer 1
10
17.484166
20
20.725673
11
18.156038
21
21.329005
0
LINE
8
Layer 1
10
18.156038
20
21.329005
11
18.538135
21
21.637335
0
LINE
8
Layer 1
10
18.538135
20
21.637335
11
18.920232
21
21.945664
0
LINE
8
Layer 1
10
18.920232
20
21.945664
11
18.973312
21
21.945664
0
LINE
8
Layer 1
10
18.973312
20
21.945664
11
19.026392
21
21.945664
0
LINE
8
Layer 1
10
19.026392
20
21.945664
11
19.025292
21
18.935781
0
LINE
8
Layer 1
10
19.025292
20
18.935781
11
19.024192
21
15.925898
0
LINE
8
Layer 1
10
19.024192
20
15.925898
11
18.937332
21
15.515816
0
LINE
8
Layer 1
10
18.937332
20
15.515816
11
18.850472
21
15.105734
0
LINE
8
Layer 1
10
18.850472
20
15.105734
11
18.693940
21
14.785794
0
LINE
8
Layer 1
10
18.693940
20
14.785794
11
18.537407
21
14.465853
0
LINE
8
Layer 1
10
18.537407
20
14.465853
11
18.169832
21
14.098278
0
LINE
8
Layer 1
10
18.169832
20
14.098278
11
17.802258
21
13.730704
0
LINE
8
Layer 1
10
17.802258
20
13.730704
11
17.254343
21
13.467847
0
LINE
8
Layer 1
10
17.254343
20
13.467847
11
16.706428
21
13.204991
0
LINE
8
Layer 1
10
16.706428
20
13.204991
11
16.295321
21
13.101298
0
LINE
8
Layer 1
10
16.295321
20
13.101298
11
15.884216
21
12.997605
0
LINE
8
Layer 1
10
15.884216
20
12.997605
11
11.421115
21
12.986426
0
LINE
8
Layer 1
10
11.161822
20
16.516629
11
10.716361
21
16.489499
0
LINE
8
Layer 1
10
10.716361
20
16.489499
11
10.481444
21
16.539959
0
LINE
8
Layer 1
10
10.481444
20
16.539959
11
10.246526
21
16.590419
0
LINE
8
Layer 1
10
10.246526
20
16.590419
11
9.947017
21
16.704355
0
LINE
8
Layer 1
10
9.947017
20
16.704355
11
9.647506
21
16.818281
0
LINE
8
Layer 1
10
9.647506
20
16.818281
11
9.322405
21
17.034070
0
LINE
8
Layer 1
10
9.322405
20
17.034070
11
8.997305
21
17.249860
0
LINE
8
Layer 1
10
8.997305
20
17.249860
11
8.388597
21
17.759113
0
LINE
8
Layer 1
10
8.388597
20
17.759113
11
7.779889
21
18.268362
0
LINE
8
Layer 1
10
7.779889
20
18.268362
11
7.750526
21
18.303263
0
LINE
8
Layer 1
10
7.750526
20
18.303263
11
7.721164
21
18.338164
0
LINE
8
Layer 1
10
7.721164
20
18.338164
11
7.133866
21
18.838351
0
LINE
8
Layer 1
10
7.133866
20
18.838351
11
6.546571
21
19.338532
0
LINE
8
Layer 1
10
6.546571
20
19.338532
11
5.489442
21
20.219121
0
LINE
8
Layer 1
10
5.489442
20
20.219121
11
4.432312
21
21.099706
0
LINE
8
Layer 1
10
4.432312
20
21.099706
11
3.707605
21
21.649676
0
LINE
8
Layer 1
10
3.707605
20
21.649676
11
2.982897
21
22.199645
0
LINE
8
Layer 1
10
2.982897
20
22.199645
11
2.738569
21
22.523093
0
LINE
8
Layer 1
10
2.738569
20
22.523093
11
2.494241
21
22.846542
0
LINE
8
Layer 1
10
2.494241
20
22.846542
11
2.475655
21
24.113968
0
LINE
8
Layer 1
10
2.475655
20
24.113968
11
2.457069
21
25.381394
0
LINE
8
Layer 1
10
2.457069
20
25.381394
11
2.548374
21
25.819017
0
LINE
8
Layer 1
10
2.548374
20
25.819017
11
2.639679
21
26.256640
0
LINE
8
Layer 1
10
2.639679
20
26.256640
11
2.803348
21
26.458858
0
LINE
8
Layer 1
10
2.803348
20
26.458858
11
2.967018
21
26.661077
0
LINE
8
Layer 1
10
2.967018
20
26.661077
11
3.170183
21
26.770036
0
LINE
8
Layer 1
10
3.170183
20
26.770036
11
3.373348
21
26.878995
0
LINE
8
Layer 1
10
3.373348
20
26.878995
11
3.791368
21
26.878995
0
LINE
8
Layer 1
10
3.791368
20
26.878995
11
4.209387
21
26.878995
0
LINE
8
Layer 1
10
4.209387
20
26.878995
11
4.407867
21
26.745239
0
LINE
8
Layer 1
10
4.407867
20
26.745239
11
4.606347
21
26.611484
0
LINE
8
Layer 1
10
4.606347
20
26.611484
11
4.707005
21
26.348816
0
LINE
8
Layer 1
10
4.707005
20
26.348816
11
4.807664
21
26.086147
0
LINE
8
Layer 1
10
4.807664
20
26.086147
11
4.811184
21
25.205206
0
LINE
8
Layer 1
10
4.811184
20
25.205206
11
4.814704
21
24.324264
0
LINE
8
Layer 1
10
4.814704
20
24.324264
11
4.872220
21
24.117223
0
LINE
8
Layer 1
10
4.872220
20
24.117223
11
4.929736
21
23.910183
0
LINE
8
Layer 1
10
4.929736
20
23.910183
11
5.180219
21
23.640397
0
LINE
8
Layer 1
10
5.180219
20
23.640397
11
5.430702
21
23.370612
0
LINE
8
Layer 1
10
5.430702
20
23.370612
11
5.841807
21
23.057942
0
LINE
8
Layer 1
10
5.841807
20
23.057942
11
6.252913
21
22.745273
0
LINE
8
Layer 1
10
6.252913
20
22.745273
11
6.987031
21
22.128869
0
LINE
8
Layer 1
10
6.987031
20
22.128869
11
7.721149
21
21.512465
0
LINE
8
Layer 1
10
7.721149
20
21.512465
11
8.513997
21
20.837049
0
LINE
8
Layer 1
10
8.513997
20
20.837049
11
9.306844
21
20.161633
0
LINE
8
Layer 1
10
9.306844
20
20.161633
11
9.764110
21
19.729632
0
LINE
8
Layer 1
10
9.764110
20
19.729632
11
10.221375
21
19.297632
0
LINE
8
Layer 1
10
10.221375
20
19.297632
11
10.495043
21
19.124076
0
LINE
8
Layer 1
10
10.495043
20
19.124076
11
10.768711
21
18.950521
0
LINE
8
Layer 1
10
10.768711
20
18.950521
11
10.935288
21
18.950521
0
LINE
8
Layer 1
10
10.935288
20
18.950521
11
11.101865
21
18.950521
0
LINE
8
Layer 1
10
11.101865
20
18.950521
11
11.310012
21
19.037491
0
LINE
8
Layer 1
10
11.310012
20
19.037491
11
11.518158
21
19.124461
0
LINE
8
Layer 1
10
11.518158
20
19.124461
11
12.262479
21
19.845894
0
LINE
8
Layer 1
10
12.262479
20
19.845894
11
13.006800
21
20.567327
0
LINE
8
Layer 1
10
13.006800
20
20.567327
11
13.360925
21
20.889467
0
LINE
8
Layer 1
10
13.360925
20
20.889467
11
13.715047
21
21.211606
0
LINE
8
Layer 1
10
13.715047
20
21.211606
11
13.918854
21
21.388101
0
LINE
8
Layer 1
10
13.918854
20
21.388101
11
14.122658
21
21.564596
0
LINE
8
Layer 1
10
14.122658
20
21.564596
11
14.915506
21
22.268912
0
LINE
8
Layer 1
10
14.915506
20
22.268912
11
15.708354
21
22.973228
0
LINE
8
Layer 1
10
15.708354
20
22.973228
11
15.737724
21
23.004627
0
LINE
8
Layer 1
10
15.737724
20
23.004627
11
15.767094
21
23.036032
0
LINE
8
Layer 1
10
15.767094
20
23.036032
11
16.325024
21
23.535091
0
LINE
8
Layer 1
10
16.325024
20
23.535091
11
16.882953
21
24.034149
0
LINE
8
Layer 1
10
16.882953
20
24.034149
11
17.090397
21
24.161407
0
LINE
8
Layer 1
10
17.090397
20
24.161407
11
17.297842
21
24.288664
0
LINE
8
Layer 1
10
17.297842
20
24.288664
11
17.560608
21
24.347549
0
LINE
8
Layer 1
10
17.560608
20
24.347549
11
17.823372
21
24.406434
0
LINE
8
Layer 1
10
17.823372
20
24.406434
11
18.046247
21
24.356171
0
LINE
8
Layer 1
10
18.046247
20
24.356171
11
18.269123
21
24.305908
0
LINE
8
Layer 1
10
18.269123
20
24.305908
11
18.474012
21
24.168262
0
LINE
8
Layer 1
10
18.474012
20
24.168262
11
18.678899
21
24.030615
0
LINE
8
Layer 1
10
18.678899
20
24.030615
11
18.850038
21
23.775022
0
LINE
8
Layer 1
10
18.850038
20
23.775022
11
19.021178
21
23.519430
0
LINE
8
Layer 1
10
19.021178
20
23.519430
11
19.058358
21
23.271496
0
LINE
8
Layer 1
10
19.058358
20
23.271496
11
19.095538
21
23.023563
0
LINE
8
Layer 1
10
19.095538
20
23.023563
11
18.999548
21
22.792971
0
LINE
8
Layer 1
10
18.999548
20
22.792971
11
18.903558
21
22.562379
0
LINE
8
Layer 1
10
18.903558
20
22.562379
11
18.656738
21
22.306840
0
LINE
8
Layer 1
10
18.656738
20
22.306840
11
18.409918
21
22.051301
0
LINE
8
Layer 1
10
18.409918
20
22.051301
11
17.793258
21
21.546381
0
LINE
8
Layer 1
10
17.793258
20
21.546381
11
17.176599
21
21.041461
0
LINE
8
Layer 1
10
17.176599
20
21.041461
11
16.692047
21
20.607098
0
LINE
8
Layer 1
10
16.692047
20
20.607098
11
16.207493
21
20.172735
0
LINE
8
Layer 1
10
16.207493
20
20.172735
11
16.245973
21
20.110486
0
LINE
8
Layer 1
10
16.245973
20
20.110486
11
16.284453
21
20.048237
0
LINE
8
Layer 1
10
16.284453
20
20.048237
11
16.221383
21
20.087218
0
LINE
8
Layer 1
10
16.221383
20
20.087218
11
16.158313
21
20.126199
0
LINE
8
Layer 1
10
16.158313
20
20.126199
11
16.080163
21
20.051843
0
LINE
8
Layer 1
10
16.080163
20
20.051843
11
16.002013
21
19.977488
0
LINE
8
Layer 1
10
16.002013
20
19.977488
11
15.121071
21
19.179791
0
LINE
8
Layer 1
10
15.121071
20
19.179791
11
14.240130
21
18.382095
0
LINE
8
Layer 1
10
14.240130
20
18.382095
11
13.652835
21
17.866928
0
LINE
8
Layer 1
10
13.652835
20
17.866928
11
13.065541
21
17.351761
0
LINE
8
Layer 1
10
13.065541
20
17.351761
11
12.700941
21
17.090616
0
LINE
8
Layer 1
10
12.700941
20
17.090616
11
12.336341
21
16.829471
0
LINE
8
Layer 1
10
12.336341
20
16.829471
11
11.971813
21
16.686613
0
LINE
8
Layer 1
10
11.971813
20
16.686613
11
11.607280
21
16.543756
0
LINE
8
Layer 1
10
11.607280
20
16.543756
11
11.161822
21
16.516629
0
LINE
8
Layer 1
10
3.668829
20
27.590151
11
3.551370
21
27.595907
0
LINE
8
Layer 1
10
3.551370
20
27.595907
11
3.321469
21
27.656685
0
LINE
8
Layer 1
10
3.321469
20
27.656685
11
3.091568
21
27.717463
0
LINE
8
Layer 1
10
3.091568
20
27.717463
11
2.843568
21
27.965463
0
LINE
8
Layer 1
10
2.843568
20
27.965463
11
2.595569
21
28.213463
0
LINE
8
Layer 1
10
2.595569
20
28.213463
11
2.531281
21
28.513226
0
LINE
8
Layer 1
10
2.531281
20
28.513226
11
2.466993
21
28.812989
0
LINE
8
Layer 1
10
2.466993
20
28.812989
11
2.503685
21
29.005906
0
LINE
8
Layer 1
10
2.503685
20
29.005906
11
2.540377
21
29.198824
0
LINE
8
Layer 1
10
2.540377
20
29.198824
11
2.617084
21
29.351611
0
LINE
8
Layer 1
10
2.617084
20
29.351611
11
2.693790
21
29.504400
0
LINE
8
Layer 1
10
2.693790
20
29.504400
11
2.895976
21
29.681921
0
LINE
8
Layer 1
10
2.895976
20
29.681921
11
3.098161
21
29.859442
0
LINE
8
Layer 1
10
3.098161
20
29.859442
11
3.391117
21
29.929720
0
LINE
8
Layer 1
10
3.391117
20
29.929720
11
3.684073
21
30.000000
0
LINE
8
Layer 1
10
3.684073
20
30.000000
11
3.923379
21
29.935562
0
LINE
8
Layer 1
10
3.923379
20
29.935562
11
4.162686
21
29.871123
0
LINE
8
Layer 1
10
4.162686
20
29.871123
11
4.350369
21
29.713198
0
LINE
8
Layer 1
10
4.350369
20
29.713198
11
4.538052
21
29.555273
0
LINE
8
Layer 1
10
4.538052
20
29.555273
11
4.676051
21
29.243233
0
LINE
8
Layer 1
10
4.676051
20
29.243233
11
4.814050
21
28.931192
0
LINE
8
Layer 1
10
4.814050
20
28.931192
11
4.813722
21
28.771361
0
LINE
8
Layer 1
10
4.813722
20
28.771361
11
4.813393
21
28.611530
0
LINE
8
Layer 1
10
4.813393
20
28.611530
11
4.748542
21
28.377936
0
LINE
8
Layer 1
10
4.748542
20
28.377936
11
4.683691
21
28.144342
0
LINE
8
Layer 1
10
4.683691
20
28.144342
11
4.468581
21
27.929232
0
LINE
8
Layer 1
10
4.468581
20
27.929232
11
4.253471
21
27.714121
0
LINE
8
Layer 1
10
4.253471
20
27.714121
11
4.019877
21
27.649270
0
LINE
8
Layer 1
10
4.019877
20
27.649270
11
3.786283
21
27.584419
0
LINE
8
Layer 1
10
3.786283
20
27.584419
11
3.668829
21
27.590151
 0 
ENDSEC
 0 
EOF